<svg width="200" height="200" viewBox="0 0 200 200" fill="none" xmlns="http://www.w3.org/2000/svg">
<path d="M91.9386 73.4912C94.8404 72.5315 97.0482 67.8627 95.8069 64.8823C89.8518 50.5825 92.8246 31.9706 117.845 44.5795C129.417 50.8047 132.611 69.0455 124.979 85.3213C117.348 101.597 103.512 109.869 89.8815 104.241C66.2819 94.4983 78.604 77.9013 91.9386 73.4912Z" fill="#C2D6E0"/>
<path d="M107.641 52.4353C104.732 53.189 102.706 57.5026 103.642 60.5356C107.657 73.5392 99.3967 88.976 82.6999 81.4747C70.984 75.5253 67.3587 57.3654 74.6024 40.9133C81.8461 24.4613 97.2159 15.9472 108.932 21.8965C128.644 33.7538 121.344 48.8854 107.641 52.4353Z" fill="#528DC1"/>
<path d="M100.841 68.5598C100.095 68.5268 99.3372 68.3267 98.7464 67.8307C86.751 57.7603 94.6378 32.864 117.845 44.5795C129.417 50.8047 132.611 69.0455 124.979 85.3213C117.348 101.597 101.504 104.277 100.143 89.1518C99.5278 82.3227 111.101 69.0126 100.841 68.5598Z" fill="#C2D6E0"/>
<path d="M89.6697 70.3821C88.9972 70.8337 88.0788 70.6559 87.6984 69.9407C87.2695 69.1343 86.9127 68.2841 86.628 67.39C86.1905 66.0163 85.9717 64.5764 85.9717 63.0705C85.9717 61.5392 86.1905 60.093 86.628 58.7319C86.9152 57.8383 87.2758 56.9866 87.7097 56.1768C88.0866 55.4733 88.9893 55.2938 89.6564 55.7319C90.3359 56.1781 90.5078 57.0922 90.1404 57.8173C89.8557 58.3794 89.6148 58.9701 89.4178 59.5894C89.0658 60.6958 88.8894 61.8561 88.8884 63.0705C88.8874 64.2848 89.0639 65.4393 89.4178 66.534C89.616 67.1472 89.8575 67.7334 90.1424 68.2926C90.5111 69.0165 90.3441 69.9291 89.6697 70.3821ZM100.555 71.8205C98.1245 71.8205 96.0585 70.9698 94.3571 69.2684C92.6558 67.567 91.8051 65.501 91.8051 63.0705C91.8051 60.6399 92.6558 58.5739 94.3571 56.8725C96.0585 55.1711 98.1245 54.3205 100.555 54.3205C102.986 54.3205 105.052 55.1711 106.753 56.8725C108.454 58.5739 109.305 60.6399 109.305 63.0705C109.305 65.501 108.454 67.567 106.753 69.2684C105.052 70.9698 102.986 71.8205 100.555 71.8205ZM113.369 69.9591C112.991 70.662 112.085 70.834 111.426 70.3844C110.762 69.9317 110.609 69.0256 110.98 68.3129C111.275 67.7473 111.518 67.1543 111.711 66.534C112.052 65.4402 112.222 64.2857 112.222 63.0705C112.222 61.8552 112.052 60.6948 111.711 59.5894C111.518 58.9625 111.275 58.3647 110.98 57.7959C110.61 57.0827 110.769 56.1762 111.437 55.7306C112.092 55.2941 112.983 55.4683 113.357 56.1605C113.798 56.9752 114.167 57.8323 114.465 58.7319C114.915 60.093 115.139 61.5392 115.138 63.0705C115.138 64.5774 114.914 66.0177 114.465 67.3915C114.17 68.2921 113.805 69.148 113.369 69.9591Z" fill="#2F3E45"/>
<path d="M161.648 151.002H157.781C157.129 151.002 156.803 150.675 156.803 150.022V121.982C156.803 121.329 157.129 121.002 157.781 121.002H161.275C161.927 121.002 162.362 121.22 162.58 121.655L171.99 139.338H172.177V121.982C172.177 121.329 172.503 121.002 173.155 121.002H177.022C177.674 121.002 178 121.329 178 121.982V150.022C178 150.675 177.674 151.002 177.022 151.002H173.621C172.938 151.002 172.441 150.691 172.13 150.069L162.813 132.713H162.626V150.022C162.626 150.675 162.3 151.002 161.648 151.002Z" fill="#C2D6E0"/>
<path d="M150.722 151.002H135.488C134.836 151.002 134.51 150.675 134.51 150.022V121.982C134.51 121.329 134.836 121.002 135.488 121.002H150.722C151.344 121.002 151.654 121.329 151.654 121.982V125.154C151.654 125.808 151.344 126.134 150.722 126.134H140.986C140.613 126.134 140.427 126.305 140.427 126.647V132.713C140.427 133.055 140.613 133.226 140.986 133.226H148.952C149.604 133.226 149.93 133.552 149.93 134.206V137.378C149.93 138.032 149.604 138.358 148.952 138.358H140.986C140.613 138.358 140.427 138.529 140.427 138.871V145.357C140.427 145.699 140.613 145.87 140.986 145.87H150.722C151.344 145.87 151.654 146.196 151.654 146.85V150.022C151.654 150.675 151.344 151.002 150.722 151.002Z" fill="#C2D6E0"/>
<path d="M121.283 151.002H116.345C113.891 151.002 111.997 150.349 110.661 149.042C109.326 147.736 108.658 145.854 108.658 143.397V128.607C108.658 126.15 109.326 124.268 110.661 122.962C111.997 121.655 113.891 121.002 116.345 121.002H121.283C123.705 121.002 125.584 121.671 126.92 123.008C128.255 124.315 128.923 126.181 128.923 128.607V130.007C128.923 130.691 128.597 131.033 127.945 131.033H123.985C123.333 131.033 123.007 130.691 123.007 130.007V128.887C123.007 127.892 122.805 127.192 122.401 126.787C121.997 126.352 121.298 126.134 120.305 126.134H117.276C116.314 126.134 115.615 126.352 115.18 126.787C114.776 127.192 114.574 127.892 114.574 128.887V143.117C114.574 144.112 114.776 144.828 115.18 145.263C115.615 145.668 116.314 145.87 117.276 145.87H120.305C121.298 145.87 121.997 145.668 122.401 145.263C122.805 144.828 123.007 144.112 123.007 143.117V140.178C123.007 139.836 122.836 139.664 122.494 139.664H119.699C119.047 139.664 118.721 139.338 118.721 138.685V135.512C118.721 134.859 119.047 134.532 119.699 134.532H127.852C128.566 134.532 128.923 134.89 128.923 135.605V143.397C128.923 145.823 128.255 147.705 126.92 149.042C125.584 150.349 123.705 151.002 121.283 151.002Z" fill="#C2D6E0"/>
<path d="M81.8868 151.002H75.3646C74.6814 151.002 74.2931 150.675 74.2 150.022L69.2151 121.982C69.1219 121.329 69.4481 121.002 70.1934 121.002H75.0385C75.7529 121.002 76.1256 121.329 76.1566 121.982L78.8587 144.983H79.1848L83.6572 121.842C83.7503 121.282 84.0765 121.002 84.6355 121.002H89.8533C90.4434 121.002 90.785 121.266 90.8782 121.795L95.4437 144.983H95.8164L98.4719 122.028C98.503 121.344 98.8757 121.002 99.59 121.002H104.435C105.18 121.002 105.507 121.344 105.413 122.028L100.382 150.022C100.289 150.675 99.9316 151.002 99.3105 151.002H92.7417C92.0895 151.002 91.7168 150.675 91.6236 150.022L87.4307 128.14H87.2444L83.0049 150.022C82.8807 150.675 82.508 151.002 81.8868 151.002Z" fill="#C2D6E0"/>
<path d="M65.4641 151.002H50.2301C49.5779 151.002 49.2518 150.675 49.2518 150.022V121.982C49.2518 121.329 49.5779 121.002 50.2301 121.002H65.4641C66.0853 121.002 66.3959 121.329 66.3959 121.982V125.154C66.3959 125.808 66.0853 126.134 65.4641 126.134H55.7274C55.3547 126.134 55.1684 126.305 55.1684 126.647V132.713C55.1684 133.055 55.3547 133.226 55.7274 133.226H63.6938C64.346 133.226 64.6722 133.552 64.6722 134.206V137.378C64.6722 138.032 64.346 138.358 63.6938 138.358H55.7274C55.3547 138.358 55.1684 138.529 55.1684 138.871V145.357C55.1684 145.699 55.3547 145.87 55.7274 145.87H65.4641C66.0853 145.87 66.3959 146.196 66.3959 146.85V150.022C66.3959 150.675 66.0853 151.002 65.4641 151.002Z" fill="#C2D6E0"/>
<path d="M26.8451 151.002H22.9783C22.3261 151.002 22 150.675 22 150.022V121.982C22 121.329 22.3261 121.002 22.9783 121.002H26.4724C27.1246 121.002 27.5594 121.22 27.7768 121.655L37.1874 139.338H37.3738V121.982C37.3738 121.329 37.6999 121.002 38.3521 121.002H42.2189C42.8711 121.002 43.1972 121.329 43.1972 121.982V150.022C43.1972 150.675 42.8711 151.002 42.2189 151.002H38.818C38.1347 151.002 37.6378 150.691 37.3272 150.069L28.0098 132.713H27.8234V150.022C27.8234 150.675 27.4973 151.002 26.8451 151.002Z" fill="#C2D6E0"/>
<path d="M132.731 180.002H130.872C130.537 180.002 130.37 179.835 130.37 179.5V161.504C130.37 161.169 130.537 161.002 130.872 161.002H132.731C133.065 161.002 133.232 161.169 133.232 161.504V168.892C133.232 169.089 133.35 169.187 133.587 169.187H139.813C140.01 169.187 140.108 169.089 140.108 168.892V161.504C140.108 161.169 140.275 161.002 140.61 161.002H142.498C142.833 161.002 143 161.169 143 161.504V179.5C143 179.835 142.833 180.002 142.498 180.002H140.61C140.275 180.002 140.108 179.835 140.108 179.5V172.024C140.108 171.827 140.01 171.728 139.813 171.728H133.587C133.35 171.728 133.232 171.827 133.232 172.024V179.5C133.232 179.835 133.065 180.002 132.731 180.002Z" fill="#528DC1"/>
<path d="M122.769 180.002H120.909C120.555 180.002 120.378 179.835 120.378 179.5V163.809C120.378 163.612 120.28 163.514 120.083 163.514H116.365C116.011 163.514 115.834 163.346 115.834 163.011V161.504C115.834 161.169 116.011 161.002 116.365 161.002H127.313C127.667 161.002 127.844 161.169 127.844 161.504V163.011C127.844 163.346 127.667 163.514 127.313 163.514H123.595C123.378 163.514 123.27 163.612 123.27 163.809V179.5C123.27 179.835 123.103 180.002 122.769 180.002Z" fill="#528DC1"/>
<path d="M114.353 180.002H104.792C104.457 180.002 104.29 179.835 104.29 179.5V161.504C104.29 161.169 104.457 161.002 104.792 161.002H106.651C106.985 161.002 107.152 161.169 107.152 161.504V177.136C107.152 177.333 107.27 177.431 107.506 177.431H114.353C114.687 177.431 114.854 177.608 114.854 177.963V179.5C114.854 179.835 114.687 180.002 114.353 180.002Z" fill="#528DC1"/>
<path d="M89.156 180.002H87.0313C86.7559 180.002 86.6575 179.835 86.7362 179.5L91.8708 161.504C91.9692 161.169 92.2053 161.002 92.5791 161.002H95.53C95.9234 161.002 96.1595 161.169 96.2382 161.504L101.373 179.5C101.452 179.835 101.343 180.002 101.048 180.002H98.9531C98.776 180.002 98.6481 179.972 98.5695 179.913C98.5104 179.835 98.4613 179.697 98.4219 179.5L97.3006 175.658H90.8085L89.6871 179.5C89.6084 179.835 89.4314 180.002 89.156 180.002ZM93.9955 163.839L91.3987 173.294H96.7399L94.1135 163.839H93.9955Z" fill="#528DC1"/>
<path d="M83.8895 180.002H74.4465C74.112 180.002 73.9448 179.835 73.9448 179.5V161.504C73.9448 161.169 74.112 161.002 74.4465 161.002H83.8895C84.2043 161.002 84.3616 161.169 84.3616 161.504V163.011C84.3616 163.346 84.2043 163.514 83.8895 163.514H77.1613C76.9253 163.514 76.8072 163.612 76.8072 163.809V168.803C76.8072 169 76.9253 169.098 77.1613 169.098H82.8567C83.2108 169.098 83.3878 169.266 83.3878 169.601V171.108C83.3878 171.443 83.2108 171.61 82.8567 171.61H77.1613C76.9253 171.61 76.8072 171.709 76.8072 171.906V177.165C76.8072 177.382 76.9253 177.49 77.1613 177.49H83.8895C84.2043 177.49 84.3616 177.658 84.3616 177.993V179.5C84.3616 179.835 84.2043 180.002 83.8895 180.002Z" fill="#528DC1"/>
<path d="M59.3608 180.002H57.5017C57.1672 180.002 57 179.835 57 179.5V161.504C57 161.169 57.1672 161.002 57.5017 161.002H59.3608C59.6952 161.002 59.8624 161.169 59.8624 161.504V168.892C59.8624 169.089 59.9804 169.187 60.2165 169.187H66.443C66.6397 169.187 66.7381 169.089 66.7381 168.892V161.504C66.7381 161.169 66.9053 161.002 67.2398 161.002H69.1284C69.4628 161.002 69.63 161.169 69.63 161.504V179.5C69.63 179.835 69.4628 180.002 69.1284 180.002H67.2398C66.9053 180.002 66.7381 179.835 66.7381 179.5V172.024C66.7381 171.827 66.6397 171.728 66.443 171.728H60.2165C59.9804 171.728 59.8624 171.827 59.8624 172.024V179.5C59.8624 179.835 59.6952 180.002 59.3608 180.002Z" fill="#528DC1"/>
</svg>
