<svg width="87" height="118" viewBox="0 0 87 118" fill="none" xmlns="http://www.w3.org/2000/svg">
<path d="M37.0669 70.4912C39.9686 69.5315 42.1765 64.8627 40.9352 61.8823C34.9801 47.5825 37.9529 28.9706 62.9732 41.5795C74.5448 47.8047 77.7391 66.0455 70.1077 82.3213C62.4764 98.5972 48.6405 106.869 35.0098 101.241C11.4102 91.4983 23.7323 74.9013 37.0669 70.4912Z" fill="#528DC1"/>
<path d="M52.7694 49.4353C49.86 50.189 47.8344 54.5026 48.7708 57.5356C52.7854 70.5392 44.525 85.976 27.8282 78.4747C16.1123 72.5253 12.487 54.3654 19.7307 37.9133C26.9744 21.4613 42.3442 12.9472 54.0601 18.8965C73.7724 30.7538 66.4722 45.8854 52.7694 49.4353Z" fill="#2F3E45"/>
<path d="M45.9691 65.5598C45.2232 65.5268 44.4655 65.3267 43.8747 64.8307C31.8793 54.7603 39.7661 29.864 62.9732 41.5795C74.5448 47.8047 77.7391 66.0455 70.1077 82.3213C62.4764 98.5972 46.6328 101.277 45.2709 86.1518C44.6561 79.3227 56.2298 66.0126 45.9691 65.5598Z" fill="#528DC1"/>
<path d="M34.798 67.3821C34.1255 67.8337 33.2071 67.6559 32.8267 66.9407C32.3978 66.1343 32.041 65.2841 31.7563 64.39C31.3188 63.0163 31.1 61.5764 31.1 60.0705C31.1 58.5392 31.3188 57.093 31.7563 55.7319C32.0435 54.8383 32.4041 53.9866 32.838 53.1768C33.2149 52.4733 34.1176 52.2938 34.7847 52.7319C35.4642 53.1781 35.6361 54.0922 35.2687 54.8173C34.984 55.3794 34.7431 55.9701 34.5461 56.5894C34.1941 57.6958 34.0177 58.8561 34.0167 60.0705C34.0157 61.2848 34.1922 62.4393 34.5461 63.534C34.7443 64.1472 34.9858 64.7334 35.2707 65.2926C35.6394 66.0165 35.4724 66.9291 34.798 67.3821ZM45.6834 68.8205C43.2528 68.8205 41.1868 67.9698 39.4854 66.2684C37.7841 64.567 36.9334 62.501 36.9334 60.0705C36.9334 57.6399 37.7841 55.5739 39.4854 53.8725C41.1868 52.1711 43.2528 51.3205 45.6834 51.3205C48.1139 51.3205 50.1799 52.1711 51.8813 53.8725C53.5827 55.5739 54.4334 57.6399 54.4334 60.0705C54.4334 62.501 53.5827 64.567 51.8813 66.2684C50.1799 67.9698 48.1139 68.8205 45.6834 68.8205ZM58.4971 66.9591C58.1192 67.662 57.2132 67.834 56.5539 67.3844C55.8899 66.9317 55.7369 66.0256 56.1082 65.3129C56.4028 64.7473 56.6466 64.1543 56.8396 63.534C57.1799 62.4402 57.35 61.2857 57.35 60.0705C57.35 58.8552 57.1799 57.6948 56.8396 56.5894C56.6466 55.9625 56.4028 55.3647 56.1082 54.7959C55.7388 54.0827 55.8972 53.1762 56.5655 52.7306C57.2203 52.2941 58.1113 52.4683 58.4857 53.1605C58.9263 53.9752 59.2954 54.8323 59.5929 55.7319C60.0431 57.093 60.2677 58.5392 60.2667 60.0705C60.2667 61.5774 60.0421 63.0177 59.5929 64.3915C59.2985 65.2921 58.9332 66.148 58.4971 66.9591Z" fill="white"/>
</svg>
